Coordinates
version=1
nRows=65
nColumns=12
inDegrees=yes

Units are S.I. units (second, meters, Newtons, ...)
Angles are in degrees

endheader
time	SC_y	SC_z	SC_x	AC_y	AC_z	AC_x	GH_y	GH_z	GH_yy	EL_x	PS_y
       0.0              -21.69          38.91          74.74          43.19         -1.146         -16.94          117.8          15.03          82.39          89.38          131.8
   0.01097              -21.69          38.91          74.73          43.19         -1.147         -16.94          117.8          15.04          82.37          89.38          131.8
   0.02195               -21.7          38.91          74.72          43.19         -1.149         -16.94          117.8          15.05          82.34          89.37          131.8
   0.03292               -21.7          38.91          74.71          43.19         -1.151         -16.93          117.8          15.07          82.31          89.37          131.8
    0.0439               -21.7          38.91           74.7          43.18         -1.153         -16.93          117.8          15.08          82.28          89.37          131.8
   0.05487               -21.7          38.91          74.68          43.18         -1.155         -16.93          117.9          15.09          82.25          89.37          131.8
   0.06585               -21.7          38.91          74.67          43.18         -1.157         -16.92          117.9           15.1          82.21          89.36          131.8
   0.07682               -21.7          38.91          74.65          43.18         -1.159         -16.92          117.9          15.12          82.18          89.36          131.8
    0.0878               -21.7          38.91          74.64          43.18         -1.162         -16.92          117.9          15.13          82.14          89.36          131.8
   0.09877               -21.7          38.91          74.62          43.18         -1.165         -16.91          117.9          15.15          82.09          89.36          131.8
    0.1097               -21.7          38.91           74.6          43.18         -1.168         -16.91          117.9          15.17          82.05          89.35          131.8
    0.1207               -21.7          38.91          74.59          43.18         -1.171          -16.9          117.9          15.19           82.0          89.35          131.8
    0.1317               -21.7          38.91          74.56          43.18         -1.174          -16.9          117.9          15.21          81.94          89.35          131.8
    0.1427               -21.7           38.9          74.54          43.18         -1.178         -16.89          118.0          15.23          81.89          89.34          131.8
    0.1536               -21.7           38.9          74.52          43.18         -1.182         -16.89          118.0          15.26          81.82          89.34          131.8
    0.1646               -21.7           38.9          74.49          43.18         -1.186         -16.88          118.0          15.28          81.76          89.33          131.8
    0.1756              -21.71           38.9          74.46          43.18         -1.191         -16.87          118.0          15.31          81.68          89.33          131.8
    0.1866              -21.71           38.9          74.43          43.18         -1.196         -16.86          118.0          15.34           81.6          89.32          131.8
    0.1975              -21.71           38.9           74.4          43.18         -1.201         -16.85          118.1          15.38          81.51          89.31          131.8
    0.2085              -21.71           38.9          74.36          43.17         -1.207         -16.85          118.1          15.41          81.42          89.31          131.8
    0.2195              -21.71           38.9          74.32          43.17         -1.214         -16.83          118.1          15.45          81.31           89.3          131.8
    0.2305              -21.71           38.9          74.28          43.17         -1.222         -16.82          118.2           15.5           81.2          89.29          131.8
    0.2414              -21.72           38.9          74.23          43.17          -1.23         -16.81          118.2          15.55          81.07          89.28          131.8
    0.2524              -21.72          38.89          74.17          43.17         -1.239          -16.8          118.3           15.6          80.93          89.27          131.8
    0.2634              -21.72          38.89          74.11          43.17         -1.249         -16.78          118.3          15.66          80.77          89.26          131.8
    0.2744              -21.72          38.89          74.04          43.16          -1.26         -16.76          118.4          15.73          80.59          89.25          131.8
    0.2853              -21.73          38.89          73.97          43.16         -1.272         -16.74          118.4          15.81           80.4          89.23          131.8
    0.2963              -21.73          38.89          73.88          43.16         -1.286         -16.72          118.5          15.89          80.17          89.22          131.8
    0.3073              -21.73          38.88          73.78          43.16         -1.302          -16.7          118.6          15.99          79.92           89.2          131.8
    0.3183              -21.74          38.88          73.67          43.15          -1.32         -16.67          118.7           16.1          79.64          89.18          131.8
    0.3292              -21.74          38.88          73.55          43.15         -1.341         -16.64          118.8          16.23          79.31          89.15          131.8
    0.3402              -21.75          38.87           73.4          43.14         -1.364          -16.6          118.9          16.37          78.94          89.13          131.8
    0.3512              -21.76          38.87          73.24          43.14         -1.392         -16.56          119.0          16.54          78.51          89.09          131.8
    0.3622              -21.77          38.86          73.04          43.13         -1.423         -16.51          119.2          16.73          78.01          89.06          131.7
    0.3731              -21.78          38.85          72.82          43.13         -1.461         -16.45          119.3          16.96          77.42          89.01          131.7
    0.3841              -21.79          38.85          72.55          43.12         -1.504         -16.38          119.5          17.23          76.73          88.96          131.7
    0.3951               -21.8          38.84          72.23          43.11         -1.556          -16.3          119.8          17.55          75.91           88.9          131.7
    0.4061              -21.82          38.82          71.85           43.1         -1.619          -16.2          120.1          17.93          74.93          88.83          131.7
     0.417              -21.84          38.81          71.39          43.08         -1.694         -16.08          120.5          18.39          73.74          88.75          131.7
     0.428              -21.86          38.79          70.83          43.07         -1.786         -15.94          120.9          18.95          72.29          88.64          131.7
     0.439              -21.89          38.77          70.13          43.04           -1.9         -15.76          121.5          19.65          70.49          88.51          131.7
      0.45              -21.92          38.75          69.27          43.02         -2.041         -15.54          122.2          20.51          68.26          88.34          131.6
    0.4609              -21.97          38.71          68.18          42.98          -2.22         -15.26          123.0          21.61          65.44          88.14          131.6
    0.4719              -22.03          38.67          66.79          42.94         -2.447          -14.9          124.1          22.99          61.86          87.88          131.6
    0.4829               -22.1          38.62          65.02          42.89         -2.737         -14.44          125.5          24.77          57.27          87.54          131.5
    0.4939               -22.2          38.55          62.74          42.81          -3.11         -13.86          127.3          27.05          51.39          87.11          131.5
    0.5048              -22.32          38.46          59.84          42.72         -3.586         -13.11          129.6          29.96          43.87          86.56          131.4
    0.5158              -22.47          38.35          56.18          42.61         -4.184         -12.17          132.5          33.63          34.42          85.87          131.3
    0.5268              -22.66          38.22          51.73          42.47         -4.913         -11.02          136.1          38.09          22.91          85.03          131.2
    0.5378              -22.88          38.07          46.56          42.31         -5.759         -9.696          140.2          43.26          9.558          84.06          131.0
    0.5487              -23.11           37.9          40.97          42.14         -6.674         -8.259          144.6          48.87         -4.895           83.0          130.9
    0.5597              -23.35          37.73          35.38          41.97          -7.59         -6.821          149.1          54.47         -19.35          81.94          130.7
    0.5707              -23.57          37.58          30.22          41.81         -8.435         -5.493          153.2          59.64          -32.7          80.97          130.6
    0.5817              -23.75          37.44          25.76          41.67         -9.165         -4.347          156.7           64.1         -44.21          80.13          130.5
    0.5926              -23.91          37.33           22.1          41.56         -9.763         -3.407          159.6          67.77         -53.66          79.44          130.4
    0.6036              -24.03          37.25           19.2          41.47         -10.24          -2.66          161.9          70.68         -61.18          78.89          130.3
    0.6146              -24.13          37.18          16.92           41.4         -10.61         -2.074          163.7          72.96         -67.06          78.46          130.3
    0.6256               -24.2          37.12          15.15          41.34          -10.9         -1.618          165.1          74.74         -71.65          78.12          130.2
    0.6365              -24.26          37.08          13.76           41.3         -11.13         -1.262          166.2          76.13         -75.23          77.86          130.2
    0.6475              -24.31          37.05          12.67          41.26         -11.31        -0.9817          167.1          77.22         -78.04          77.66          130.1
    0.6585              -24.34          37.02          11.81          41.24         -11.45        -0.7592          167.8          78.08         -80.28          77.49          130.1
    0.6694              -24.37           37.0          11.11          41.22         -11.56        -0.5808          168.3          78.78         -82.08          77.36          130.1
    0.6804              -24.39          36.99          10.55           41.2         -11.65        -0.4362          168.8          79.34         -83.53          77.26          130.1
    0.6914              -24.41          36.97          10.09          41.18         -11.73        -0.3179          169.2           79.8         -84.72          77.17          130.1
    0.7024              -24.43          36.96          9.709          41.17         -11.79          -0.22          169.5          80.19          -85.7           77.1          130.1
